<svg xmlns="http://www.w3.org/2000/svg" viewBox="0 0 16 16" width="64" height="64" shape-rendering="crispEdges">
  <path fill="#1a1c2c" d="M2 1h1v1h-1zM5 1h2v1h-2zM2 2h1v1h-1zM4 2h4v1h-4zM9 2h2v1h-2zM7 3h5v1h-5zM1 6h2v1h-2zM1 7h1v1h-1zM1 8h1v1h-1zM1 9h1v1h-1zM1 10h2v1h-2zM2 11h3v1h-3zM3 12h3v1h-3zM3 13h1v1h-1z"/>
  <path fill="#73eff7" d="M3 1h2v1h-2zM3 2h1v1h-1zM8 2h1v1h-1zM11 2h2v1h-2zM12 3h1v1h-1zM6 7h1v1h-1z"/>
  <path fill="#f4f4f4" d="M7 1h2v1h-2zM3 6h6v1h-6zM2 8h2v1h-2zM6 12h1v1h-1z"/>
  <path fill="#94b0c2" d="M9 6h4v1h-4zM2 7h1v1h-1zM13 7h1v1h-1zM4 8h6v1h-6zM2 9h8v1h-8zM3 10h5v1h-5zM7 12h3v1h-3zM4 13h3v1h-3z"/>
  <path fill="#29366f" d="M3 7h2v1h-2zM8 7h5v1h-5z"/>
  <path fill="#3b5dc9" d="M5 7h1v1h-1zM7 7h1v1h-1z"/>
  <path fill="#566c86" d="M10 8h4v1h-4zM10 9h4v1h-4zM8 10h5v1h-5zM5 11h6v1h-6zM7 13h5v1h-5z"/>
</svg>
