<svg xmlns="http://www.w3.org/2000/svg" viewBox="0 0 16 16" width="64" height="64" shape-rendering="crispEdges">
  <path fill="#1a1c2c" d="M2 1h2v1h-2zM2 2h1v1h-1zM2 3h1v1h-1zM2 4h1v1h-1zM2 5h1v1h-1zM2 6h2v1h-2zM3 7h3v1h-3zM5 8h2v1h-2zM6 9h1v1h-1zM6 10h1v1h-1zM6 11h1v1h-1zM6 12h1v1h-1zM6 13h1v1h-1z"/>
  <path fill="#f4f4f4" d="M4 1h6v1h-6zM3 2h1v1h-1z"/>
  <path fill="#94b0c2" d="M10 1h2v1h-2zM4 2h9v1h-9zM3 3h4v1h-4zM8 3h2v1h-2zM3 4h5v1h-5zM9 4h1v1h-1zM3 5h7v1h-7zM4 6h1v1h-1z"/>
  <path fill="#333c57" d="M7 3h1v1h-1zM8 4h1v1h-1z"/>
  <path fill="#566c86" d="M10 3h3v1h-3zM10 4h3v1h-3zM10 5h3v1h-3zM5 6h1v1h-1zM10 6h2v1h-2z"/>
  <path fill="#ffcd75" d="M6 6h4v1h-4zM7 7h2v1h-2zM7 8h1v1h-1zM7 9h1v1h-1zM7 10h1v1h-1zM7 11h1v1h-1zM7 12h1v1h-1zM7 13h1v1h-1z"/>
  <path fill="#b13e53" d="M6 7h1v1h-1zM9 7h1v1h-1zM8 8h1v1h-1zM8 9h1v1h-1zM8 10h1v1h-1zM8 11h1v1h-1zM8 12h1v1h-1zM8 13h1v1h-1z"/>
</svg>
